<?xml version="1.0" encoding="utf-8"?>
<!-- Generator: Adobe Illustrator 26.0.1, SVG Export Plug-In . SVG Version: 6.00 Build 0)  -->
<svg version="1.1" id="Layer_1" xmlns="http://www.w3.org/2000/svg" xmlns:xlink="http://www.w3.org/1999/xlink" x="0px" y="0px"
	 viewBox="0 0 612 792" style="enable-background:new 0 0 612 792;" xml:space="preserve"  >
<g>
	<g>
		<path d="M245.92,295.48c-0.11-0.98-0.33-1.97-0.33-2.95c-0.02-26.86-0.05-53.72,0.07-80.57c0.01-1.53,0.83-3.39,1.88-4.52
			c4.09-4.38,8.36-8.6,12.71-12.72c0.95-0.89,2.49-1.35,3.84-1.59c6.18-1.12,10.97,0.98,14.83,6.04c2.4,3.15,5.67,5.63,8.36,8.58
			c0.84,0.92,1.51,2.4,1.52,3.63c0.11,12.69,0.07,25.38,0.05,38.07c0,0.81-0.23,1.61-0.48,3.29c-3.2-3.13-5.85-5.73-8.5-8.33
			c-0.16,0.11-0.31,0.23-0.47,0.34c6.19,16.77,12.37,33.54,18.56,50.31c-0.31,0.19-0.62,0.38-0.93,0.56
			c-2.77-2.42-5.89-4.54-7.44-8.11c-2.15-4.94-4.13-9.95-6.15-14.94c-0.51-1.27-1.02-2.2-2.71-2.3c-0.79-0.05-1.84-1.17-2.2-2.05
			c-2.71-6.68-5.34-13.4-7.85-20.16c-0.66-1.78-1.59-2.36-3.44-2.31c-4.42,0.12-8.84,0.04-13.57,0.04
			c-0.05,1.21-0.14,2.21-0.14,3.22c-0.01,11.91-0.09,23.82,0.06,35.72c0.04,3-0.55,5.39-2.96,7.31c-1.44,1.14-2.67,2.53-3.99,3.81
			C246.41,295.75,246.16,295.61,245.92,295.48z M280.83,242.87c0.26-1.29,0.39-1.62,0.39-1.94c0.01-11.65,0.04-23.29,0-34.94
			c-0.01-2.4-3.2-5.28-5.76-5.3c-5.04-0.03-10.08-0.01-15.12-0.01c-4.68,0-6.8,2.1-6.81,6.74c0,1.91-0.19,3.85,0.07,5.73
			c0.18,1.26,0.73,2.67,1.58,3.58c3.26,3.5,6.72,6.8,10.07,10.21C270.29,232.06,275.3,237.21,280.83,242.87z M277.99,243.65
			c-8.05-8.1-16.17-16.27-24.24-24.39c0,7.94,0,16.11,0,24.39C262.08,243.65,270.21,243.65,277.99,243.65z"/>
		<path d="M427.56,296.21c-0.26-1.66-0.52-2.54-0.52-3.41c-0.02-26.09-0.05-52.17,0.05-78.26c0-1.29,0.79-2.82,1.68-3.81
			c2.94-3.29,6.1-6.38,8.99-10.22c-1.14,0.42-2.48,0.58-3.38,1.3c-1.69,1.35-3.07,3.07-4.7,4.5c-0.44,0.39-1.32,0.28-2,0.4
			c0.18-0.6,0.19-1.37,0.57-1.77c3.64-3.73,7.31-7.45,11.07-11.05c0.59-0.56,1.72-0.75,2.6-0.77c5.22-0.07,10.44,0.06,15.65-0.08
			c2.02-0.05,2.89,0.72,3.57,2.53c7.4,19.86,14.88,39.69,22.34,59.53c4.65,12.36,9.3,24.71,13.92,37.08
			c0.35,0.93,0.52,1.92,0.24,3.3c-0.57-0.38-1.16-0.74-1.72-1.15c-4.78-3.54-6.9-8.77-8.93-14.06c-0.93-2.43-2.02-4.8-2.93-7.24
			c-0.58-1.54-1.09-2.86-3.18-2.75c-0.53,0.03-1.37-0.99-1.64-1.69c-6.65-16.98-13.24-33.99-19.86-50.99
			c-1.99-5.1-3.96-10.21-6.12-15.23c-0.33-0.77-1.56-1.31-2.48-1.63c-0.78-0.27-1.74,0.06-2.59-0.07
			c-4.61-0.71-8.17,0.78-11.11,4.49c-1.31,1.65-2.17,3.06-2.16,5.26c0.08,24.69-0.01,49.39,0.12,74.08c0.02,3.24-0.74,5.7-3.27,7.7
			C430.46,293.25,429.32,294.52,427.56,296.21z"/>
		<path d="M388.62,412.56c0-0.99,0-1.93,0-2.87c0-28.34,0.02-56.68-0.04-85.02c0-2.09,0.55-3.59,2.09-5
			c2.69-2.46,5.11-5.22,7.82-7.65c0.92-0.82,2.37-1.46,3.58-1.48c7.65-0.13,15.3,0,22.95-0.11c2.13-0.03,2.85,0.6,2.85,2.79
			c-0.06,28.86-0.02,57.72-0.1,86.58c0,1.15-0.59,2.54-1.37,3.39c-2.76,3-5.7,5.85-8.65,8.67c-0.57,0.55-1.46,1.08-2.21,1.08
			c-8.69,0.05-17.38,0.01-26.08-0.03C389.31,412.92,389.15,412.79,388.62,412.56z M392.26,411.18c5.24,0,10.26,0.06,15.27-0.06
			c0.82-0.02,1.75-0.71,2.4-1.33c2.76-2.64,5.37-5.45,8.16-8.05c1.46-1.36,1.97-2.82,1.97-4.81c-0.06-24.42,0.02-48.84-0.09-73.26
			c-0.02-3.96,0.06-7.62,3.73-10.1c0.17-0.11,0.19-0.43,0.43-1.02c-5.38,0-10.55-0.04-15.71,0.06c-0.64,0.01-1.36,0.7-1.89,1.23
			c-2.78,2.75-5.45,5.61-8.3,8.29c-1.45,1.36-1.99,2.81-1.98,4.79c0.06,23.99-0.02,47.97,0.09,71.96c0.02,4.43,0.17,8.67-3.93,11.6
			C392.35,410.51,392.37,410.63,392.26,411.18z"/>
		<path d="M49.6,250.1c0.07,1,0.19,2,0.19,3c0.01,9.74,0.06,19.48-0.03,29.22c-0.02,2.06,0.46,3.66,2.02,5.06
			c1.68,1.5,3.16,3.22,4.74,4.84c1.49,1.53,3.5,1.56,5.04,0c6.11-6.18,12.22-12.36,18.24-18.63c0.68-0.71,1.07-1.95,1.14-2.97
			c0.16-2.6-0.1-5.23,0.1-7.82c0.18-2.39-0.62-4.07-2.35-5.7c-3.92-3.69-7.74-7.5-11.43-11.43c-0.9-0.96-1.53-2.54-1.6-3.87
			c-0.2-4.07-0.07-8.15-0.07-13.13c-7.85,7.77-15.16,15-22.47,22.24c-0.27-0.13-0.53-0.26-0.8-0.38c-0.12-0.87-0.35-1.75-0.36-2.62
			c-0.02-11.22-0.06-22.44,0.05-33.65c0.01-1.33,0.58-2.98,1.48-3.92c5.31-5.5,10.84-10.79,16.19-16.26
			c1.71-1.75,2.98-1.88,4.75-0.08c7.64,7.73,15.39,15.35,23.03,23.08c0.71,0.72,1.2,1.93,1.27,2.95c0.17,2.59,0.04,5.2,0.03,7.8
			c-0.25-0.02-0.5-0.03-0.74-0.05c-9.81-9.74-19.62-19.49-29.58-29.38c-2.98,2.95-5.58,5.48-8.09,8.1
			c-0.41,0.43-0.53,1.28-0.53,1.93c-0.03,10.35-0.02,20.7-0.01,31.04c0,0.31,0.1,0.62,0.25,1.45c7.61-7.51,14.91-14.7,22.21-21.89
			c0.24,0.09,0.49,0.18,0.73,0.27c0.09,0.87,0.25,1.74,0.25,2.61c0.02,8.26-0.05,16.52,0.08,24.78c0.02,1.21,0.66,2.68,1.49,3.56
			c4.12,4.35,8.43,8.54,12.62,12.82c0.57,0.58,1.24,1.39,1.27,2.13c0.14,3.21,0.14,6.44,0.01,9.65c-0.03,0.75-0.64,1.59-1.21,2.18
			c-5.46,5.6-10.92,11.21-16.52,16.66c-0.99,0.96-2.68,1.64-4.07,1.69c-5.3,0.19-10.61,0.21-15.91-0.01
			c-1.46-0.06-3.02-0.98-4.29-1.85c-1.26-0.87-2.37-2.08-3.24-3.36c-0.74-1.08-1.44-2.46-1.46-3.71c-0.12-9.3-0.13-18.61,0.01-27.91
			c0.02-1.31,0.79-2.8,1.64-3.85c1.5-1.83,3.33-3.39,5.03-5.06C49.01,249.78,49.31,249.94,49.6,250.1z"/>
		<path d="M345.53,367.17c0-14.25,0.03-28.5-0.04-42.75c-0.01-1.9,0.51-3.27,1.9-4.56c2.73-2.54,5.23-5.34,8-7.84
			c0.92-0.83,2.38-1.46,3.61-1.48c7.73-0.13,15.47-0.02,23.2-0.1c2.01-0.02,2.73,0.59,2.72,2.67c-0.05,28.94-0.02,57.87-0.09,86.81
			c0,1.06-0.58,2.36-1.32,3.15c-2.73,2.92-5.55,5.76-8.51,8.43c-0.91,0.83-2.38,1.43-3.61,1.45c-7.56,0.13-15.12-0.03-22.68,0.12
			c-2.45,0.05-3.26-0.56-3.24-3.14C345.59,395.67,345.53,381.42,345.53,367.17z M349.24,411.21c3.84,0,7.5-0.2,11.12,0.06
			c3.57,0.26,6.34-0.62,8.65-3.51c1.83-2.29,4.05-4.31,6.24-6.27c1.44-1.29,1.84-2.7,1.84-4.57c-0.05-24.41,0.04-48.83-0.11-73.24
			c-0.02-4.1,0.23-7.74,3.79-10.37c0.08-0.06,0.01-0.31,0.01-0.8c-3.53,0-7.07,0.21-10.58-0.06c-3.74-0.29-6.68,0.57-9.08,3.66
			c-1.75,2.24-3.92,4.18-6.06,6.09c-1.51,1.35-1.93,2.86-1.92,4.82c0.05,24.15-0.01,48.31,0.08,72.46c0.02,4.17,0.22,8.2-3.81,10.87
			C349.31,410.4,349.34,410.65,349.24,411.21z"/>
		<path d="M243.53,295.71c-2.27-2.62-5.1-4.94-6.7-7.93c-2.57-4.81-4.33-10.04-6.4-15.11c-0.51-1.26-0.95-2.28-2.66-2.37
			c-0.76-0.04-1.78-0.99-2.13-1.78c-1.24-2.77-2.35-5.62-3.29-8.5c-0.59-1.79-1.55-2.38-3.41-2.36c-7.74,0.09-15.48,0.14-23.21-0.05
			c-1.55-0.04-3.43-0.79-4.55-1.85c-5.35-5.09-10.44-10.45-15.72-15.61c-1.43-1.4-2.01-2.85-1.98-4.83
			c0.09-6.78-0.08-13.56,0.12-20.34c0.05-1.54,0.87-3.34,1.91-4.5c2.88-3.18,6.07-6.08,9.14-9.08c-0.2-0.33-0.4-0.65-0.6-0.98
			c-1.13,0.49-2.43,0.78-3.35,1.53c-1.61,1.31-2.94,2.96-4.51,4.33c-0.46,0.4-1.33,0.33-2.01,0.47c0.16-0.6,0.13-1.38,0.5-1.77
			c3.64-3.74,7.31-7.45,11.07-11.05c0.59-0.56,1.71-0.79,2.59-0.8c4.87-0.08,9.75,0.17,14.6-0.11c2.99-0.17,4.2,0.99,5.18,3.67
			c6.25,17.04,12.67,34.03,19.05,51.02c5.5,14.64,11.03,29.27,16.52,43.92c0.41,1.09,0.62,2.26,0.93,3.39
			C244.26,295.25,243.89,295.48,243.53,295.71z M220.5,255.45c-1.82-4.73-3.46-9.02-5.12-13.3c-5.03-12.95-10.05-25.91-15.15-38.83
			c-0.39-0.99-1.34-2.44-2.12-2.5c-5.51-0.4-11.12-1.07-14.87,4.67c-0.98,1.51-1.84,2.74-1.82,4.62c0.08,8.78,0.34,17.57-0.08,26.32
			c-0.24,4.97,1.06,8.67,4.94,11.75c1.44,1.14,2.66,1.96,4.57,1.88c3.47-0.14,6.98,0.24,10.42-0.11c4.05-0.42,7.02,0.89,9.43,4.05
			c0.59,0.78,1.56,1.72,2.4,1.77C215.4,255.91,217.73,255.6,220.5,255.45z"/>
		<path d="M136.65,317.9c-1.08,0.43-2.32,0.65-3.19,1.34c-1.42,1.12-2.54,2.62-3.9,3.83c-0.73,0.65-1.69,1.05-2.54,1.56
			c-0.21-0.25-0.42-0.5-0.63-0.75c0.45-0.64,0.81-1.36,1.36-1.92c3.35-3.41,6.67-6.85,10.14-10.13c0.78-0.74,2.08-1.28,3.16-1.31
			c5.3-0.13,10.6-0.01,15.91-0.09c1.63-0.02,2.49,0.53,3.08,2.1c7.96,21.41,15.97,42.8,24,64.19c4.12,10.98,8.3,21.93,12.44,32.9
			c0.35,0.93,0.57,1.9,0.96,3.2c-0.84-0.16-1.34-0.09-1.58-0.32c-3.11-2.88-6.32-5.61-7.78-9.9c-1.48-4.35-3.4-8.55-5.23-12.77
			c-0.33-0.76-1.19-1.83-1.8-1.82c-2.07,0.03-2.64-1.25-3.19-2.8c-0.91-2.53-2.01-5-2.83-7.56c-0.6-1.86-1.58-2.52-3.58-2.49
			c-7.73,0.12-15.47,0.14-23.21-0.03c-1.46-0.03-3.24-0.77-4.3-1.78c-5.53-5.28-10.92-10.71-16.23-16.22
			c-0.86-0.89-1.52-2.38-1.54-3.61c-0.14-7.13-0.15-14.26,0-21.38c0.03-1.31,0.72-2.89,1.62-3.85c3.02-3.22,6.28-6.21,9.45-9.29
			C137.04,318.63,136.84,318.27,136.65,317.9z M173.03,372.88c-1.03-2.72-1.89-5.06-2.8-7.38c-5.91-15.22-11.82-30.45-17.8-45.64
			c-0.28-0.72-1.25-1.63-1.94-1.67c-5.41-0.26-10.94-1-14.61,4.72c-1.03,1.6-1.89,2.89-1.87,4.84c0.07,8.6,0.36,17.23-0.09,25.81
			c-0.27,5.26,0.97,9.36,5.33,12.29c1.2,0.8,2.68,1.52,4.07,1.62c3.37,0.23,6.81,0.39,10.15,0c4.35-0.52,7.51,0.99,10.11,4.32
			c0.53,0.68,1.5,1.39,2.29,1.42C168.1,373.29,170.35,373.03,173.03,372.88z"/>
		<path d="M531.71,296.2c-2.99-3.74-7.38-5.36-7.18-11.08c0.4-11.46,0.12-22.95,0.12-34.43c0-0.93,0-1.85,0-3.49
			c-1.7,1.61-2.95,2.74-4.14,3.93c-4,3.99-8.03,7.95-11.9,12.06c-0.84,0.89-1.47,2.36-1.5,3.58c-0.15,6.34-0.15,12.69-0.03,19.04
			c0.05,2.34-0.42,4.17-2.36,5.68c-1.6,1.25-2.94,2.84-4.93,4.82c-0.31-1.63-0.6-2.48-0.6-3.33c-0.03-9.22-0.12-18.43,0.08-27.65
			c0.03-1.51,1.02-3.32,2.12-4.43c9.15-9.29,18.39-18.48,27.7-27.61c1.61-1.58,2.21-3.15,1.56-5.72
			c-8.1,8.05-15.98,15.9-23.87,23.74c-0.24-0.1-0.49-0.2-0.73-0.3c-0.08-0.96-0.23-1.93-0.23-2.89c-0.02-10.87,0.08-21.74-0.07-32.6
			c-0.04-2.6,0.68-4.49,2.67-6.08c1.42-1.14,2.71-2.46,4.05-3.69c0.25,0.14,0.5,0.27,0.75,0.41c0,11.56,0,23.12,0,34.68
			c0.21,0.08,0.42,0.17,0.63,0.25c1.66-1.57,3.35-3.12,4.97-4.73c3.64-3.62,7.29-7.21,10.81-10.94c0.73-0.78,1.23-2.09,1.24-3.17
			c0.11-6.52,0.14-13.04,0.01-19.56c-0.04-2.17,0.46-3.85,2.15-5.27c1.67-1.41,3.19-3,4.77-4.51c0.23,0.12,0.47,0.24,0.7,0.36
			c0.08,0.9,0.23,1.79,0.23,2.69c0.02,9.39,0.08,18.78-0.07,28.17c-0.02,1.38-0.71,3.07-1.68,4.05
			c-9.45,9.6-19.05,19.06-28.52,28.64c-0.89,0.9-1.22,2.37-1.81,3.58c0.3,0.2,0.6,0.41,0.9,0.61c7.93-7.89,15.86-15.77,23.85-23.72
			C532.64,239.19,532.94,292.3,531.71,296.2z"/>
		<path d="M405.76,235.2c-4.86,4.74-9.23,9.08-13.7,13.31c-1.07,1.01-2.49,1.64-3.75,2.45c-0.32-1.44-0.9-2.87-0.91-4.31
			c-0.06-16.69-0.05-33.39-0.03-50.08c0-1.09,0.13-2.18,0.2-3.27c0.22-0.15,0.44-0.29,0.66-0.44c1.22,1.08,2.38,2.23,3.66,3.24
			c2.65,2.1,3.56,4.68,3.49,8.14c-0.22,11.38-0.08,22.78-0.08,34.17c0,0.94,0,1.88,0,3.56c1.3-1.17,2.18-1.9,2.98-2.7
			c6.18-6.11,12.31-12.26,18.55-18.31c1.36-1.32,1.97-2.64,1.92-4.55c-0.13-4.78,0.05-9.56-0.08-14.34
			c-0.06-2.09,0.53-3.67,2.12-5.02c1.61-1.37,3.1-2.88,5.22-4.88c0.2,1.65,0.37,2.45,0.37,3.25c0.02,5.56,0.13,11.13-0.07,16.69
			c-0.05,1.38-0.84,2.99-1.8,4.02c-3.01,3.25-6.33,6.21-9.37,9.43c-0.79,0.84-1.38,2.22-1.42,3.38c-0.16,4.6,0.06,9.22-0.15,13.82
			c-0.06,1.4-0.75,3.05-1.7,4.09c-2.92,3.22-6.01,6.29-9.21,9.22c-1.51,1.39-1.97,2.85-1.95,4.8c0.08,7.65-0.16,15.31,0.12,22.95
			c0.14,3.7-0.63,6.63-3.71,8.78c-1.16,0.81-2.3,1.64-3.46,2.46c-0.24-1.38-0.69-2.76-0.7-4.15c-0.07-8.43-0.13-16.87,0.05-25.3
			c0.03-1.54,0.81-3.37,1.85-4.52c2.95-3.3,6.29-6.25,9.3-9.5c0.84-0.91,1.47-2.36,1.52-3.6
			C405.88,243.86,405.76,239.72,405.76,235.2z"/>
		<path d="M372.33,262.23c1.13,0.12,1.47,0.05,1.61,0.19c4.09,4.01,8.2,8.01,12.17,12.14c0.38,0.39,0.19,1.95-0.28,2.43
			c-5.95,6.1-11.96,12.13-18.06,18.07c-0.64,0.62-1.89,0.84-2.87,0.85c-6.08,0.07-12.17,0.11-18.25-0.03
			c-1.17-0.03-2.58-0.59-3.43-1.38c-3.43-3.2-6.74-6.53-9.97-9.94c-0.69-0.73-1.21-1.94-1.22-2.94
			c-0.07-24.77-0.07-49.54-0.01-74.32c0-0.91,0.51-2.04,1.15-2.7c3.44-3.57,6.97-7.04,10.53-10.48c0.57-0.55,1.49-0.75,2.24-1.11
			c0.2,0.27,0.41,0.53,0.61,0.8c-1.43,1.51-2.75,3.17-4.33,4.5c-2.04,1.72-2.67,3.71-2.66,6.36c0.1,23.99,0.08,47.98,0.02,71.97
			c-0.01,2.08,0.59,3.59,2.07,5.04c3.54,3.46,6.92,7.08,10.38,10.62c2.11,2.16,5.4,2.15,7.57-0.01
			c5.05-5.03,10.12-10.04,15.09-15.14c0.7-0.72,1.16-1.88,1.29-2.9c0.21-1.62,0.31-3.35-0.02-4.93c-0.29-1.4-1.23-2.66-1.91-3.97
			C373.59,264.45,373.08,263.57,372.33,262.23z"/>
		<path d="M282.4,310.64c2.94,3.04,7.78,4.57,7.23,10.13c-0.1,1,0.61,2.33,1.35,3.12c3.09,3.29,6.43,6.35,9.48,9.68
			c0.89,0.97,1.36,2.5,1.6,3.85c0.76,4.32-0.3,8.03-4.12,10.63c-0.35,0.24-0.56,0.68-0.92,0.92c-6.5,4.39-8.05,10.48-7.64,18.13
			c0.63,11.95,0.11,23.97,0.22,35.95c0.02,2.37-0.57,4.16-2.38,5.69c-1.61,1.36-3.03,2.94-4.54,4.43c-0.24-0.11-0.49-0.22-0.73-0.33
			c-0.07-0.89-0.21-1.78-0.21-2.67c-0.01-15.46-0.05-30.93,0.06-46.39c0.01-1.37,0.74-3.01,1.68-4.04c3.04-3.34,6.37-6.4,9.47-9.68
			c0.7-0.74,1.26-1.92,1.28-2.91c0.13-5.04,0.14-10.08,0-15.11c-0.03-1.07-0.64-2.34-1.38-3.14c-2.77-2.99-5.51-6.07-8.64-8.66
			C280.86,317.47,281.79,314.18,282.4,310.64z"/>
		<path d="M207.87,310.65c3.08,3.09,8.01,4.76,7.27,10.45c-0.11,0.83,0.55,1.98,1.2,2.66c3.11,3.27,6.44,6.34,9.48,9.68
			c0.94,1.03,1.47,2.62,1.76,4.04c0.88,4.37-0.6,7.83-4.13,10.65c-2.36,1.88-4.26,4.33-6.51,6.37c-1.41,1.28-1.91,2.66-1.9,4.56
			c0.07,14.33-0.04,28.67,0.1,43c0.03,3.02-0.57,5.37-3.01,7.27c-1.45,1.12-2.67,2.55-3.99,3.84c-0.23-0.12-0.46-0.25-0.69-0.37
			c-0.07-0.9-0.19-1.79-0.19-2.69c-0.01-15.46-0.05-30.93,0.07-46.39c0.01-1.36,0.76-3,1.69-4.03c2.97-3.28,6.26-6.26,9.28-9.5
			c0.79-0.85,1.4-2.21,1.44-3.35c0.16-4.86,0.16-9.73,0-14.59c-0.04-1.15-0.65-2.51-1.44-3.37c-2.76-3.01-5.5-6.08-8.64-8.66
			C206.28,317.43,207.42,314.12,207.87,310.65z"/>
		<path d="M113.51,295.28c-0.04-0.92-0.12-1.84-0.12-2.76c-0.01-15.38,0.02-30.77-0.04-46.15c-0.01-1.8,0.5-3.07,1.81-4.31
			c3.16-2.98,6.25-6.05,9.17-9.26c0.88-0.97,1.49-2.52,1.54-3.83c0.18-4.69,0.17-9.39,0-14.08c-0.05-1.22-0.69-2.66-1.52-3.57
			c-2.56-2.83-5.12-5.75-8.1-8.11c-3.52-2.78-3.06-6.18-2.55-10.64c1.71,1.53,2.94,2.73,4.27,3.81c2.29,1.85,3.72,3.97,3.32,7.14
			c-0.11,0.9,0.59,2.14,1.29,2.88c3.1,3.29,6.42,6.37,9.47,9.7c0.89,0.97,1.41,2.46,1.67,3.8c0.89,4.58-0.79,8.09-4.42,11.05
			c-2.87,2.35-6.3,4.85-7.61,8.05c-1.34,3.3-0.46,7.52-0.47,11.33c-0.02,11.82-0.05,23.64,0.03,35.46c0.02,2.17-0.49,3.82-2.19,5.24
			c-1.7,1.41-3.17,3.09-4.75,4.65C114.04,295.55,113.78,295.42,113.51,295.28z"/>
		<path d="M65.73,310.57c4.08,1.64,7.39,6.36,7.6,10.13c0.06,1.08,0.58,2.35,1.31,3.14c3.15,3.36,6.54,6.49,9.66,9.87
			c0.83,0.9,1.24,2.36,1.48,3.63c0.88,4.58-0.75,8.15-4.41,11.06c-2.23,1.77-4.02,4.09-6.15,6.01c-1.49,1.33-2.01,2.79-2,4.77
			c0.08,14.52-0.02,29.04,0.09,43.56c0.02,2.55-0.55,4.5-2.55,6.14c-1.57,1.29-2.93,2.84-4.39,4.27c-0.23-0.09-0.47-0.18-0.7-0.27
			c-0.08-0.79-0.23-1.58-0.23-2.37c-0.01-15.74-0.04-31.48,0.05-47.21c0.01-1.13,0.65-2.5,1.44-3.35c3.14-3.36,6.52-6.51,9.68-9.87
			c0.74-0.78,1.28-2.07,1.31-3.15c0.14-4.87,0.15-9.74,0-14.6c-0.04-1.16-0.59-2.53-1.36-3.39c-2.63-2.89-5.24-5.87-8.27-8.31
			C64.83,317.84,65.23,314.46,65.73,310.57z"/>
		<path d="M489.23,414.56c1.22-3.9-1.51-5.81-3.42-8.23c-0.76-0.96-1.07-2.51-1.08-3.8c-0.06-28.17-0.04-56.34-0.04-84.5
			c0-2.83,0-5.67,0-8.5c0.18-0.02,0.36-0.05,0.53-0.07c0.07,0.25,0.23,0.51,0.19,0.74c-0.53,3.17,0.83,5.44,3.11,7.51
			c0.85,0.77,1.57,2.2,1.57,3.33c0.08,30.78,0.05,61.55,0.04,92.33c0,0.33-0.07,0.66-0.11,0.98
			C489.76,414.42,489.49,414.49,489.23,414.56z"/>
		<path d="M130.89,412.74c-0.06-1-0.16-1.99-0.17-2.99c-0.01-12.25-0.08-24.5,0.05-36.75c0.03-2.66-0.59-4.66-2.66-6.35
			c-0.82-0.67-1.23-1.85-1.83-2.8c0.24-0.19,0.48-0.38,0.72-0.58c0.55,0.34,1.18,0.6,1.63,1.04c2.9,2.87,5.83,5.72,8.59,8.72
			c0.73,0.8,1.25,2.11,1.26,3.19c0.1,9.47,0.1,18.94,0,28.41c-0.01,1.08-0.57,2.35-1.29,3.18c-1.68,1.92-3.6,3.62-5.43,5.41
			C131.47,413.06,131.18,412.9,130.89,412.74z"/>
		<path d="M178.14,295.19c0-1.01,0-2.03,0-3.04c0-12.34-0.06-24.69,0.05-37.03c0.02-2.38-0.6-4.13-2.41-5.66
			c-0.91-0.77-1.44-1.98-2.14-3c0.22-0.2,0.45-0.41,0.67-0.61c0.48,0.24,1.04,0.39,1.43,0.73c0.72,0.62,1.35,1.35,2.01,2.04
			c2.66,2.74,6.4,5.05,7.7,8.33c1.38,3.47,0.48,7.86,0.51,11.84c0.04,5.82-0.05,11.65,0.04,17.47c0.03,1.97-0.41,3.48-1.98,4.79
			c-1.74,1.44-3.27,3.14-4.89,4.73C178.81,295.59,178.48,295.39,178.14,295.19z"/>
		<path d="M79.33,323.42c1.71-0.14,2.53-0.27,3.35-0.27c9.02-0.01,18.05-0.04,27.07,0.04c1.12,0.01,2.54,0.31,3.3,1.03
			c3.67,3.44,7.18,7.05,10.68,10.66c0.45,0.46,0.52,1.3,0.77,1.96c-0.73-0.18-1.47-0.36-2.2-0.56c-0.07-0.02-0.14-0.11-0.19-0.18
			c-3.29-4.92-8.02-5.7-13.55-5.35c-6.22,0.4-12.49-0.01-18.74,0.14c-2.46,0.06-4.35-0.53-5.91-2.47
			C82.67,326.86,81.22,325.46,79.33,323.42z"/>
		<path d="M128.2,205.8c0.83-0.05,1.66-0.15,2.49-0.16c8.94-0.01,17.88-0.08,26.82,0.07c1.38,0.02,3.03,0.72,4.06,1.65
			c3.46,3.16,6.71,6.53,9.97,9.91c0.48,0.5,0.53,1.42,0.78,2.15c-0.73-0.23-1.8-0.24-2.14-0.74c-3.3-4.77-7.88-5.66-13.34-5.32
			c-6.31,0.4-12.67-0.02-19,0.15c-2.48,0.06-4.34-0.57-5.91-2.49c-1.28-1.57-2.77-2.96-4.17-4.42
			C127.9,206.33,128.05,206.06,128.2,205.8z"/>
		<path d="M295.64,323.44c1.7-0.15,2.52-0.29,3.33-0.29c9.02-0.02,18.04-0.05,27.06,0.04c1.19,0.01,2.66,0.42,3.49,1.19
			c3.61,3.37,7.05,6.93,10.49,10.48c0.45,0.47,0.52,1.3,0.77,1.96c-0.74-0.17-1.85-0.1-2.15-0.56c-3.48-5.27-8.54-5.86-14.28-5.52
			c-5.96,0.36-11.97-0.04-17.95,0.13c-2.64,0.08-4.7-0.54-6.36-2.64C298.86,326.75,297.47,325.42,295.64,323.44z"/>
		<path d="M221.95,323.4c0.88-0.09,1.75-0.25,2.63-0.25c8.95-0.02,17.9-0.08,26.85,0.06c1.39,0.02,3.05,0.73,4.08,1.67
			c3.45,3.17,6.7,6.57,9.94,9.96c0.46,0.48,0.44,1.41,0.64,2.14c-0.67-0.23-1.34-0.45-2-0.69c-0.07-0.03-0.14-0.11-0.19-0.18
			c-3.25-4.75-7.81-5.74-13.31-5.37c-6.23,0.42-12.51-0.02-18.76,0.15c-2.67,0.08-4.69-0.61-6.36-2.69c-1.12-1.4-2.46-2.63-3.7-3.94
			C221.84,323.98,221.89,323.69,221.95,323.4z"/>
		<path d="M481.64,367.13c0.99,4.92,0.69,8.84-3.34,12.01c-2.77,2.18-4.97,5.07-7.52,7.55c-0.46,0.44-1.41,0.35-2.09,0.61
			c-0.73,0.28-1.55,0.54-2.07,1.07c-3.9,3.95-7.85,7.86-11.54,12c-1.96,2.21-4.02,2.27-6.94,1.38
			C459.36,390.15,470.36,378.79,481.64,367.13z"/>
		<path d="M492.96,362c-0.38-4.18-0.72-8.02,3.24-11.02c2.95-2.24,5.34-5.22,8.06-7.77c0.48-0.45,1.42-0.39,2.11-0.66
			c0.73-0.28,1.56-0.52,2.09-1.04c3.98-3.89,7.9-7.83,11.82-11.77c2.22-2.24,3.1-2.43,6.24-1.34
			C515.45,339.48,504.31,350.64,492.96,362z"/>
		<path d="M71.86,330.65c-1.26,0.06-2.52,0.17-3.77,0.18c-4.6,0.02-9.2,0.08-13.79-0.05c-1.1-0.03-2.47-0.44-3.23-1.18
			c-5.78-5.62-11.44-11.37-17.13-17.09c-0.35-0.35-0.57-0.82-0.85-1.23c0.11-0.25,0.21-0.5,0.32-0.76c0.82,0.34,1.83,0.47,2.42,1.04
			c3.44,3.3,6.71,6.78,10.2,10.03c0.9,0.83,2.36,1.42,3.59,1.47c4.33,0.18,8.68,0.18,13.01,0.02c2.27-0.08,4.02,0.51,5.48,2.26
			c1.3,1.56,2.77,2.98,4.16,4.47C72.13,330.1,71.99,330.38,71.86,330.65z"/>
		<path d="M81.5,192.96c0.84,0.47,1.83,0.78,2.5,1.43c3.32,3.19,6.49,6.55,9.88,9.65c0.96,0.88,2.51,1.48,3.82,1.53
			c4.51,0.18,9.04-0.06,13.55,0.15c1.4,0.06,2.97,0.77,4.07,1.66c1.81,1.48,3.29,3.35,4.91,5.05c-0.14,0.25-0.27,0.5-0.41,0.75
			c-0.81,0.09-1.62,0.26-2.43,0.27c-5.04,0.02-10.08,0.08-15.12-0.04c-1.1-0.03-2.46-0.47-3.22-1.22
			c-5.68-5.5-11.24-11.13-16.82-16.73c-0.51-0.51-0.88-1.15-1.31-1.73C81.11,193.46,81.3,193.21,81.5,192.96z"/>
		<path d="M175.37,310.42c0.82,0.44,1.78,0.73,2.42,1.35c3.31,3.19,6.46,6.57,9.86,9.66c1.02,0.93,2.66,1.57,4.05,1.64
			c4.33,0.21,8.68,0.17,13.02,0.04c2.09-0.07,3.68,0.54,5.03,2.12c1.37,1.6,2.86,3.1,4.8,5.17c-1.55,0.23-2.26,0.43-2.98,0.43
			c-5.21,0.03-10.42,0.07-15.63-0.04c-1.03-0.02-2.31-0.41-3.02-1.1c-5.78-5.64-11.45-11.38-17.14-17.12
			c-0.39-0.39-0.59-0.95-0.88-1.44C175.05,310.89,175.21,310.66,175.37,310.42z"/>
		<path d="M288.88,330.28c-1.22,0.29-1.78,0.53-2.34,0.54c-5.47,0.03-10.94,0.06-16.41-0.02c-0.87-0.01-1.95-0.38-2.55-0.97
			c-5.94-5.85-11.81-11.77-17.68-17.69c-0.22-0.22-0.32-0.58-0.15-1.6c0.82,0.35,1.83,0.51,2.43,1.09
			c3.45,3.31,6.73,6.78,10.22,10.04c0.84,0.79,2.22,1.37,3.37,1.41c4.51,0.16,9.03,0.16,13.54,0.02c2.11-0.07,3.67,0.61,5.01,2.17
			C285.67,326.87,287.14,328.38,288.88,330.28z"/>
		<path d="M481.09,356.06c-2.9,0.29-5.96,0.61-8.77-2.58c-4.51-5.12-9.61-9.73-15.01-15.1c2.18-0.14,3.66-0.23,5.87-0.37
			c-5.51-5.6-10.67-10.83-15.82-16.06c-0.03,0.03-0.06,0.06-0.09,0.09C458.57,333.4,469.86,344.77,481.09,356.06z"/>
		<path d="M482,363.97c-0.85,0.12-1.7,0.35-2.55,0.34c-11.28-0.05-22.56-0.19-33.84-0.17c-2.93,0.01-4.31-2.05-6.75-3.94
			c14.5,0,28.31,0,42.12,0c0.01,0.12,0.01,0.23,0.02,0.35c-3.16,0-6.33,0-9.49,0c-0.05,0.31-0.09,0.61-0.14,0.92
			c2.99,2.77,7.26,0.11,10.55,1.63C481.95,363.4,481.98,363.68,482,363.97z"/>
		<path d="M516.36,390.98c-1.44,0-2.87,0-4.31,0c-0.13,0.2-0.26,0.39-0.39,0.59c5.18,5.28,10.36,10.55,15.54,15.83
			c-0.07,0.06-0.13,0.12-0.2,0.18c-11.31-11.43-22.62-22.86-33.8-34.17c2.7-1.15,5.83-0.59,8.14,1.71
			c5.09,5.08,10.18,10.15,15.27,15.23C516.52,390.55,516.44,390.76,516.36,390.98z"/>
		<path d="M492.52,368.55c-0.77-4.12-0.65-4.27,2.93-4.28c1.56,0,3.14,0.14,4.68-0.03c2.63-0.3,4.63,0.52,6.48,2.43
			c0.76,0.79,2.27,1.18,3.45,1.2c7.72,0.14,15.45,0.21,23.17,0.1c2.39-0.03,3.65,0.98,4.7,3.36c-1.79,0-3.31,0-4.84,0
			c-5.38,0-10.76,0.05-16.14-0.04c-1.05-0.02-2.48-0.24-3.07-0.93c-1.52-1.78-3.33-1.86-5.38-1.84
			C503.23,368.6,497.94,368.55,492.52,368.55z"/>
	</g>
</g>
</svg>
